<mxfile host="app.diagrams.net" modified="2020-08-05T14:16:34.408Z" agent="5.0 (Macintosh; Intel Mac OS X 10_14_6) AppleWebKit/537.36 (KHTML, like Gecko) Chrome/83.0.4103.116 Safari/537.36" etag="fyJY_yXmxFLR52MaWC4y" version="13.4.5" type="github">
  <diagram id="ZO9XbKNoYJbgpJGRzFDk" name="Page-1">
    <mxGraphModel dx="1426" dy="692" grid="1" gridSize="11" guides="1" tooltips="1" connect="1" arrows="1" fold="1" page="1" pageScale="1" pageWidth="827" pageHeight="1169" background="#FFFFFF" math="0" shadow="0">
      <root>
        <mxCell id="0" />
        <mxCell id="1" parent="0" />
        <mxCell id="F0oYyTLLXaPs0bqgdizJ-73" value="" style="rounded=0;whiteSpace=wrap;html=1;fillColor=#f5f5f5;dashed=1;dashPattern=1 1;fontColor=#333333;strokeColor=none;" vertex="1" parent="1">
          <mxGeometry x="490" y="83" width="470" height="146.5" as="geometry" />
        </mxCell>
        <mxCell id="F0oYyTLLXaPs0bqgdizJ-78" value="" style="rounded=0;whiteSpace=wrap;html=1;strokeColor=#6c8ebf;fillColor=#dae8fc;dashed=1;dashPattern=1 1;strokeWidth=1;" vertex="1" parent="1">
          <mxGeometry x="408" y="240" width="552" height="210" as="geometry" />
        </mxCell>
        <mxCell id="F0oYyTLLXaPs0bqgdizJ-76" value="" style="rounded=0;whiteSpace=wrap;html=1;strokeColor=#9673a6;fillColor=#e1d5e7;dashed=1;dashPattern=1 1;strokeWidth=1;" vertex="1" parent="1">
          <mxGeometry x="411.46" y="460" width="548.54" height="100" as="geometry" />
        </mxCell>
        <mxCell id="F0oYyTLLXaPs0bqgdizJ-75" value="" style="rounded=0;whiteSpace=wrap;html=1;strokeColor=#d79b00;fillColor=#ffe6cc;dashed=1;dashPattern=1 1;strokeWidth=1;" vertex="1" parent="1">
          <mxGeometry y="240" width="400" height="320" as="geometry" />
        </mxCell>
        <mxCell id="F0oYyTLLXaPs0bqgdizJ-72" value="" style="rounded=0;whiteSpace=wrap;html=1;strokeColor=#82b366;fillColor=#d5e8d4;dashed=1;dashPattern=1 1;" vertex="1" parent="1">
          <mxGeometry y="83" width="470" height="146.5" as="geometry" />
        </mxCell>
        <mxCell id="F0oYyTLLXaPs0bqgdizJ-66" style="edgeStyle=orthogonalEdgeStyle;rounded=0;orthogonalLoop=1;jettySize=auto;html=1;strokeWidth=3;" edge="1" parent="1" source="F0oYyTLLXaPs0bqgdizJ-1">
          <mxGeometry relative="1" as="geometry">
            <mxPoint x="560" y="346.4999999999999" as="targetPoint" />
          </mxGeometry>
        </mxCell>
        <mxCell id="F0oYyTLLXaPs0bqgdizJ-1" value="" style="outlineConnect=0;dashed=0;verticalLabelPosition=bottom;verticalAlign=top;align=center;html=1;shape=mxgraph.aws3.api_gateway;fillColor=#D9A741;gradientColor=none;strokeWidth=3;" vertex="1" parent="1">
          <mxGeometry x="426.5" y="300" width="76.5" height="93" as="geometry" />
        </mxCell>
        <mxCell id="F0oYyTLLXaPs0bqgdizJ-21" style="edgeStyle=orthogonalEdgeStyle;rounded=0;orthogonalLoop=1;jettySize=auto;html=1;exitX=0.5;exitY=1;exitDx=0;exitDy=0;exitPerimeter=0;entryX=0;entryY=0.5;entryDx=0;entryDy=0;fontStyle=1;strokeWidth=3;" edge="1" parent="1" source="F0oYyTLLXaPs0bqgdizJ-3" target="F0oYyTLLXaPs0bqgdizJ-19">
          <mxGeometry relative="1" as="geometry" />
        </mxCell>
        <mxCell id="F0oYyTLLXaPs0bqgdizJ-30" style="edgeStyle=orthogonalEdgeStyle;rounded=0;orthogonalLoop=1;jettySize=auto;html=1;exitX=0.5;exitY=0;exitDx=0;exitDy=0;exitPerimeter=0;entryX=0;entryY=0.5;entryDx=0;entryDy=0;fontStyle=1;strokeWidth=3;" edge="1" parent="1" source="F0oYyTLLXaPs0bqgdizJ-3" target="F0oYyTLLXaPs0bqgdizJ-18">
          <mxGeometry relative="1" as="geometry" />
        </mxCell>
        <mxCell id="F0oYyTLLXaPs0bqgdizJ-3" value="" style="pointerEvents=1;shadow=0;dashed=0;html=1;strokeColor=none;labelPosition=center;verticalLabelPosition=bottom;verticalAlign=top;align=center;fillColor=#505050;shape=mxgraph.mscae.intune.user_group;strokeWidth=3;" vertex="1" parent="1">
          <mxGeometry x="20" y="357.5" width="100" height="70" as="geometry" />
        </mxCell>
        <mxCell id="F0oYyTLLXaPs0bqgdizJ-9" style="edgeStyle=orthogonalEdgeStyle;rounded=0;orthogonalLoop=1;jettySize=auto;html=1;exitX=1;exitY=0.5;exitDx=0;exitDy=0;strokeWidth=3;" edge="1" parent="1" source="F0oYyTLLXaPs0bqgdizJ-5" target="F0oYyTLLXaPs0bqgdizJ-1">
          <mxGeometry relative="1" as="geometry" />
        </mxCell>
        <mxCell id="F0oYyTLLXaPs0bqgdizJ-79" style="edgeStyle=orthogonalEdgeStyle;rounded=0;orthogonalLoop=1;jettySize=auto;html=1;exitX=0.5;exitY=1;exitDx=0;exitDy=0;entryX=0;entryY=0.5;entryDx=0;entryDy=0;strokeWidth=3;" edge="1" parent="1" source="F0oYyTLLXaPs0bqgdizJ-5" target="F0oYyTLLXaPs0bqgdizJ-14">
          <mxGeometry relative="1" as="geometry" />
        </mxCell>
        <mxCell id="F0oYyTLLXaPs0bqgdizJ-5" value="" style="shape=image;html=1;verticalAlign=top;verticalLabelPosition=bottom;labelBackgroundColor=#ffffff;imageAspect=0;aspect=fixed;image=https://cdn2.iconfinder.com/data/icons/artificial-intelligence-52/48/bl_1647_Robot_artificial_intelligence_worker_dog_magnifier_bot-128.png;fontStyle=1;strokeWidth=3;" vertex="1" parent="1">
          <mxGeometry x="260" y="324" width="87" height="87" as="geometry" />
        </mxCell>
        <mxCell id="F0oYyTLLXaPs0bqgdizJ-29" style="edgeStyle=orthogonalEdgeStyle;rounded=0;orthogonalLoop=1;jettySize=auto;html=1;exitX=1;exitY=0.5;exitDx=0;exitDy=0;exitPerimeter=0;strokeWidth=3;" edge="1" parent="1" source="F0oYyTLLXaPs0bqgdizJ-10" target="F0oYyTLLXaPs0bqgdizJ-27">
          <mxGeometry relative="1" as="geometry" />
        </mxCell>
        <mxCell id="F0oYyTLLXaPs0bqgdizJ-81" style="edgeStyle=orthogonalEdgeStyle;rounded=0;orthogonalLoop=1;jettySize=auto;html=1;strokeWidth=3;" edge="1" parent="1" source="F0oYyTLLXaPs0bqgdizJ-10" target="F0oYyTLLXaPs0bqgdizJ-58">
          <mxGeometry relative="1" as="geometry" />
        </mxCell>
        <mxCell id="F0oYyTLLXaPs0bqgdizJ-82" style="edgeStyle=orthogonalEdgeStyle;rounded=0;orthogonalLoop=1;jettySize=auto;html=1;entryX=0;entryY=0.5;entryDx=0;entryDy=0;strokeWidth=3;" edge="1" parent="1" source="F0oYyTLLXaPs0bqgdizJ-10" target="F0oYyTLLXaPs0bqgdizJ-61">
          <mxGeometry relative="1" as="geometry" />
        </mxCell>
        <mxCell id="F0oYyTLLXaPs0bqgdizJ-10" value="" style="outlineConnect=0;dashed=0;verticalLabelPosition=bottom;verticalAlign=top;align=center;html=1;shape=mxgraph.aws3.lambda_function;fillColor=#5294CF;gradientColor=none;fontStyle=1;strokeWidth=3;" vertex="1" parent="1">
          <mxGeometry x="560" y="311.5" width="71" height="70" as="geometry" />
        </mxCell>
        <mxCell id="F0oYyTLLXaPs0bqgdizJ-14" value="" style="shape=image;verticalLabelPosition=bottom;labelBackgroundColor=#ffffff;verticalAlign=top;aspect=fixed;imageAspect=0;image=https://upload.wikimedia.org/wikipedia/en/thumb/c/c7/Dialogflow_logo.svg/694px-Dialogflow_logo.svg.png;strokeWidth=3;" vertex="1" parent="1">
          <mxGeometry x="469.56999999999994" y="497" width="180.87" height="48" as="geometry" />
        </mxCell>
        <mxCell id="F0oYyTLLXaPs0bqgdizJ-51" style="edgeStyle=orthogonalEdgeStyle;rounded=0;orthogonalLoop=1;jettySize=auto;html=1;exitX=1;exitY=0.5;exitDx=0;exitDy=0;entryX=0.416;entryY=-0.002;entryDx=0;entryDy=0;entryPerimeter=0;fontStyle=1;strokeWidth=3;" edge="1" parent="1" source="F0oYyTLLXaPs0bqgdizJ-18" target="F0oYyTLLXaPs0bqgdizJ-5">
          <mxGeometry relative="1" as="geometry" />
        </mxCell>
        <mxCell id="F0oYyTLLXaPs0bqgdizJ-18" value="" style="shape=image;html=1;verticalAlign=top;verticalLabelPosition=bottom;labelBackgroundColor=#ffffff;imageAspect=0;aspect=fixed;image=https://cdn2.iconfinder.com/data/icons/circle-icons-1/64/keyboard-128.png;strokeColor=#000000;fontStyle=1;strokeWidth=3;" vertex="1" parent="1">
          <mxGeometry x="120" y="261" width="70" height="70" as="geometry" />
        </mxCell>
        <mxCell id="F0oYyTLLXaPs0bqgdizJ-48" style="edgeStyle=orthogonalEdgeStyle;rounded=0;orthogonalLoop=1;jettySize=auto;html=1;entryX=0.384;entryY=1.012;entryDx=0;entryDy=0;entryPerimeter=0;fontStyle=1;strokeWidth=3;" edge="1" parent="1" source="F0oYyTLLXaPs0bqgdizJ-19" target="F0oYyTLLXaPs0bqgdizJ-5">
          <mxGeometry relative="1" as="geometry" />
        </mxCell>
        <mxCell id="F0oYyTLLXaPs0bqgdizJ-19" value="" style="shape=image;html=1;verticalAlign=top;verticalLabelPosition=bottom;labelBackgroundColor=#ffffff;imageAspect=0;aspect=fixed;image=https://cdn2.iconfinder.com/data/icons/circle-icons-1/64/mic-128.png;strokeColor=#000000;fontStyle=1;strokeWidth=3;" vertex="1" parent="1">
          <mxGeometry x="124.75" y="434.5" width="69.5" height="69.5" as="geometry" />
        </mxCell>
        <mxCell id="2" value="Text" style="text;html=1;align=center;verticalAlign=middle;resizable=0;points=[];autosize=1;fontStyle=1;strokeWidth=3;" vertex="1" parent="1">
          <mxGeometry x="135" y="331" width="40" height="20" as="geometry" />
        </mxCell>
        <mxCell id="F0oYyTLLXaPs0bqgdizJ-27" value="" style="outlineConnect=0;fontColor=#232F3E;gradientColor=#4D72F3;gradientDirection=north;fillColor=#3334B9;strokeColor=#ffffff;dashed=0;verticalLabelPosition=bottom;verticalAlign=top;align=center;html=1;fontSize=12;fontStyle=0;aspect=fixed;shape=mxgraph.aws4.resourceIcon;resIcon=mxgraph.aws4.dynamodb;strokeWidth=3;" vertex="1" parent="1">
          <mxGeometry x="778.5" y="361" width="78" height="78" as="geometry" />
        </mxCell>
        <mxCell id="F0oYyTLLXaPs0bqgdizJ-32" style="edgeStyle=orthogonalEdgeStyle;rounded=0;orthogonalLoop=1;jettySize=auto;html=1;strokeWidth=3;" edge="1" parent="1" source="F0oYyTLLXaPs0bqgdizJ-31" target="F0oYyTLLXaPs0bqgdizJ-1">
          <mxGeometry relative="1" as="geometry">
            <mxPoint x="340" y="300" as="targetPoint" />
          </mxGeometry>
        </mxCell>
        <mxCell id="F0oYyTLLXaPs0bqgdizJ-31" value="" style="aspect=fixed;perimeter=ellipsePerimeter;html=1;align=center;shadow=0;dashed=0;fontColor=#4277BB;labelBackgroundColor=#ffffff;fontSize=12;spacingTop=3;image;image=img/lib/ibm/infrastructure/dashboard.svg;strokeColor=#000000;fontStyle=1" vertex="1" parent="1">
          <mxGeometry x="250" y="116.5" width="80" height="80" as="geometry" />
        </mxCell>
        <mxCell id="F0oYyTLLXaPs0bqgdizJ-39" style="edgeStyle=orthogonalEdgeStyle;rounded=0;orthogonalLoop=1;jettySize=auto;html=1;entryX=0;entryY=0.5;entryDx=0;entryDy=0;fontStyle=1;strokeWidth=3;" edge="1" parent="1" source="F0oYyTLLXaPs0bqgdizJ-33" target="F0oYyTLLXaPs0bqgdizJ-31">
          <mxGeometry relative="1" as="geometry" />
        </mxCell>
        <mxCell id="F0oYyTLLXaPs0bqgdizJ-33" value="" style="shadow=0;dashed=0;html=1;strokeColor=none;fillColor=#4495D1;labelPosition=center;verticalLabelPosition=bottom;verticalAlign=top;align=center;outlineConnect=0;shape=mxgraph.veeam.portal_admin;fontStyle=1" vertex="1" parent="1">
          <mxGeometry x="49.75" y="119" width="75" height="75" as="geometry" />
        </mxCell>
        <mxCell id="F0oYyTLLXaPs0bqgdizJ-36" value="Admin" style="text;html=1;align=center;verticalAlign=middle;resizable=0;points=[];autosize=1;fontStyle=1;strokeWidth=3;" vertex="1" parent="1">
          <mxGeometry x="60" y="206.5" width="50" height="20" as="geometry" />
        </mxCell>
        <mxCell id="F0oYyTLLXaPs0bqgdizJ-37" value="End User" style="text;html=1;align=center;verticalAlign=middle;resizable=0;points=[];autosize=1;fontStyle=1;strokeWidth=3;" vertex="1" parent="1">
          <mxGeometry x="120" y="389" width="70" height="20" as="geometry" />
        </mxCell>
        <mxCell id="F0oYyTLLXaPs0bqgdizJ-38" value="Dashboard" style="text;html=1;align=center;verticalAlign=middle;resizable=0;points=[];autosize=1;fontStyle=1;strokeWidth=3;" vertex="1" parent="1">
          <mxGeometry x="250" y="206.5" width="80" height="20" as="geometry" />
        </mxCell>
        <mxCell id="F0oYyTLLXaPs0bqgdizJ-50" value="Voice" style="text;html=1;align=center;verticalAlign=middle;resizable=0;points=[];autosize=1;fontStyle=1;strokeWidth=3;" vertex="1" parent="1">
          <mxGeometry x="134.5" y="511" width="50" height="20" as="geometry" />
        </mxCell>
        <mxCell id="F0oYyTLLXaPs0bqgdizJ-55" value="Virtual Agent" style="text;html=1;align=center;verticalAlign=middle;resizable=0;points=[];autosize=1;fontStyle=1;strokeWidth=3;" vertex="1" parent="1">
          <mxGeometry x="300" y="421" width="90" height="20" as="geometry" />
        </mxCell>
        <mxCell id="F0oYyTLLXaPs0bqgdizJ-56" value="API Gateway" style="text;html=1;align=center;verticalAlign=middle;resizable=0;points=[];autosize=1;fontStyle=1;strokeWidth=3;" vertex="1" parent="1">
          <mxGeometry x="413" y="400" width="90" height="20" as="geometry" />
        </mxCell>
        <mxCell id="F0oYyTLLXaPs0bqgdizJ-57" value="DynamoDB" style="text;html=1;align=center;verticalAlign=middle;resizable=0;points=[];autosize=1;fontStyle=1;strokeWidth=3;" vertex="1" parent="1">
          <mxGeometry x="870" y="419" width="80" height="20" as="geometry" />
        </mxCell>
        <mxCell id="F0oYyTLLXaPs0bqgdizJ-68" style="edgeStyle=orthogonalEdgeStyle;rounded=0;orthogonalLoop=1;jettySize=auto;html=1;strokeWidth=3;" edge="1" parent="1" source="F0oYyTLLXaPs0bqgdizJ-58">
          <mxGeometry relative="1" as="geometry">
            <mxPoint x="730" y="168.25" as="targetPoint" />
          </mxGeometry>
        </mxCell>
        <mxCell id="F0oYyTLLXaPs0bqgdizJ-58" value="" style="outlineConnect=0;dashed=0;verticalLabelPosition=bottom;verticalAlign=top;align=center;html=1;shape=mxgraph.aws3.sns;fillColor=#D9A741;gradientColor=none;strokeColor=#000000;strokeWidth=3;" vertex="1" parent="1">
          <mxGeometry x="780" y="130" width="76.5" height="76.5" as="geometry" />
        </mxCell>
        <mxCell id="F0oYyTLLXaPs0bqgdizJ-61" value="" style="shape=image;verticalLabelPosition=bottom;labelBackgroundColor=#ffffff;verticalAlign=top;aspect=fixed;imageAspect=0;image=data:image/png,iVBORw0KGgoAAAANSUhEUgAAAQQAAACyCAYAAACk7LHWAAAgAElEQVR4Ae2dB5hcxbXny/t234b3dvdteJufvTnnnHPOOTmAhBDGmGSwwTYYB8A22DjjgCM2mCAJ5QASCAUkkAQoR1CWJvUkaRRQOO/7VdXpPn3ndk9PT3dP93Td7+u5d7rvrXBunX+dVKecS0eiQKJAokCiQKJAokCiQKJAokCiQKJAokCiQKJAokCiQKJAokCiQKJAokCiQKJAokCiQKJAokCiQK0UGBoa+pVCofBrQ0ND70mfmU2D8+fPv+fgwYO/KiK/UOv4SPd1GQVGR0cfGBsbGzhz5oyMjo7KyMhI8cP/9sNveo9+n73f/q/XefdqWZV+02f1rPXq//asZWTv0e/tvXqd91v2ee7V7/Ssz9vf9Dt7j7229/K9/pY9aznZ++33eddazkS/Xbx4Uc6cOfP04ODgu0XkXV021FN3a6HA8PDw/aOjowMMpqGhofSZwTQ4d+6cDA8PP3X+/PkECLUwRzfeMzg4eP+ZM2f6AYPBwcHip1Dh2t6Trkv0aktaFMrbNzY25gEhSQjdyOk19jkLCIVCQQYLg1IYLMhA76AcfmNEtj15XtZ+6ZKseSB92poGD16SVx59R/auPic9R4alUAgg79/p4KAkQKiRKbr5NgUEZrgwcAoyOFiQ3uNDsn3ROVlx9xWZP1vk2Vnp0wk0mDdLZNGNIpsfvSLHd52Vgf4o+RUSIHQzn9fcdwUEVIZCYVCGhgZk4NSI7Fx8UZbdeUUYYPOvuyrzr+OcPp1Ag2evvSrzrxV59bELcuLQsAd4pL4kIdTMFt17owLC4CAzSUGGhgty9M0xefnhy/LcXJF5gMHsBASdAAS0cR6gPVvkmWtEVt51WQ5sOCP9veHdJkDoXj6vuecAwujoaL83ig0VZHBoSPasOicrP45UkCSDTgGCYjsjeM+bdVUWzBZ5c/456T2RAKFmhuj2G0sSwqAMDhUE78LOpWNBXUiSQUeqSV5KuE7k6feKbHvynPQdH/LvNkkI3c7tNfRfJYQhVAYPCIUACHdckXmzowiabAedBQwRyBMg1MAA6ZZyClSUEBIgdBYI5IB2AoTysZ7+q4ECKiGoDYH4A68yJECYMYDQezzElZw9ezYFJtXAE119SwKEmetBSRJCV7N2fZ0vBwRmkmhUTBLCjJEQklGxPt7oyqfKAQEvQ1IZii68HL28k35TCQGVgRiTpDJ0JYtPrtMJEGa+ypBsCJPjia6+OwFCAoSuZoDU+XIKzARA8PESxEzET6PFei2Xc6PLbmZ5VmVAFUwqQ/nYT//lUCAXEJaMybIOMirCqAuuF3nuBpHnrg9M2yjm9eXMCWUvmNvYspsJBpRdBgiFAAiDg4NPpXwIOYyQvgoUyALCQKEgO5ec7QhA8EAwR2T5XSLbfiiyZ6HI1sdEVt4dAGJKi7KQNmaJLLlFZMMjIrueFXn9JyIv3Cey8IOdISkoIPQQh1AY8BJCAoTE+VUp0ImAABA8e63IczeKbHxE5PhmkXPDIlfeETk/LHJsk8i6h8OsHpZv187AvuxZ4hcGrb5XZP8KkZGTIpfOi1w8K9K3W2TLYyKLbw2rCps9y0+l/AQIVYd++jGPAgDCyMhIP7kQCoMD0u4SgoLB0ltFds0XGT0lcuWSlB1Xr4gMHhXZ9rgI9/EMn4mYS8tm2femb4j07gpAYAu/elXkXEFk/yqR5z8Zy/Y5IyYuf6L6G/17AoS8EZ++q0qBjgEEGHq2+BwN6x4SOfVGiVmvwrH+TzjDtByXLoqcfF1k3RdFFqL/VwCFIljMEVn5cZGDq0TGBsvLDCWKaNn8P3hY5NXviCy+KQJOjcDTaMavVB6AsPWJMfFux6QyVOWD9GOkQBYQSKO2s42Mijq7L5gjsuJjIjueEhk5JYIUUO2wjDt0VOSNn4ms/JgIhsEiACgDzxZZ9GGRzV8PKgGqhx62HP2Os36PtHBghciazwbbQrHsNghq8oDw83JAIOtyMiom9q9IgSwgtJPKAHNhK2AG3vgVkeOviVwaK7GlMiVn1IZ3zoez/V7vvjAabAvrHxFZfGMwGFI23onVnxbZt1TkbH9JKvBlREmD60sXgo1Cy9ZyOQMgffuCQXPJbUF1aAdgSCpDxWGffqhEgbYEhDhzM5u/8KnArNgKrFRgGfPcoMiR9SI7ng5Mj2FR77X3cT1yQmT3ApEX7gkSw7afiPTtKakfMLh9BpDBkLhzgchba0RGe6LN4mq8T1UVERnrF3l7bTBoLlQ1YholBQWEpDJUGv3p+3EUUEDQ5c/TLSEws/JZfHOw5ldjVmbmwbdFtv6oZDxcdrvIGz8VGToicuVyaR4vY/JzIoUDIn17RS6MVJYKxvpE9i4OoDT/epGFHxLZ9C2Rnh0il87ll42kMnxcZOe8oOLMn2NUlBaDg1cZnixXGZLbcRwLpC8sBRQQ2sHLoC5CdH0YkZlfoq3AT8RmNr54JszGL94fDI0KJPNwR14v8vJDQcV452w+4wIQFiRKd4lcRgXYE5hfDYa+/OhNeP5ekQMrRcYK5WCizaPcC2dFjm4QWftgdH9WMGhWMgg24nsAYcuTZ5NR0Q74dF2dAtMOCEgEZAuGkecGRj72qsg70VbgmVY5LXIt+jwMueKj5a4+mBZG8jkFZ4ksvzMEFJ05HaWFTDkWBLhGzUDdOLRGZM19wb5QLNMwNLaHRR8S2fqD4GlAKrDgoteUhyfi9R+XJJhGMHqtZXhAeCIBQnUOSL+WUWA6AcEzG2HH1wWf/v5lQQ/P0/8t8xIghFoAU1ZiDkABxgVomKVPbA7qwVWjRmiZMDC2gp43RTZ8NQATz+a5KRUg+J0PsQgHV4qc7ats0ES1Of6qyNrPiyy80YCWAZlK/ZjK9wkQyoZ6+qcWCkwXIChjLb1ZZNM3RU5XiitQrjXni2Mi258UWfzhKoAQJQ+/29K1Iss/IrL9qfG2BYrFGLh3GfsYxN2pAIMq+r62HRXn2WuCu3Hzt0RObw/RjKrmULZKC1yPYFt4WmTVJzPuzyp1VWvHRL8lQKiFA9I9ZRSYNkCYJbLsIyI7nwmWf525LQMhip8bCvp4MfBIRCoBAoyKRKCztzIM3z/zgcC4+5dGQ2IEGKSRoxtFVtwdXJHzo51AmV7LyJ71d87UR72rPyWyd6nI6InoidA6jKribQsbRdZ8JtoWmgQGtDcBQtlQT//UQoESIJAtqTWhy56ZZots/FrQsfPAAMMe0YioBqd3BF9/5K9cQKBMVjuuvk9k41dFVn2i3AYA0xJzQLjz+SEtKdgW3nopegSUOWsU5RUUYD6ukRgW3SSy/ksiRzaIYPjMO1BPdi+MdoU51aWRLBBN5n8FhJ5jBb+46cyZM+zunQKTamGMbr1nWgCBxUNzRLb9WGT0dLDUq2TA+fyIyKHnA5Oy2pAZ/MrFEmtlJQQFA1Y8DhwSIQhp6JDIpkeDzs7vZYAwXCoL1ySxA0RBVmI2/zwMD1AgQWQAw39vQAFgwP2J9OPXWkS7hfaR2gEMVmnilqxU71S/V0BIcQjdyt119LsECK1b3ATDKCDgAVB1AIYhcMjbB24Vefp9Iks+LHL0lQkAYVaQDLKSBJGN6OswXT2AAKPTViQP1JsVd4ksvS1IGjCr/z0CRfba1zdHZMOXY9zChRIIcXV8k8hKpJgWAIJKCCRISRJCHUzSTY+0EyBcvhgkA9yFMBgbltYECLODmI6LTz0UMB3BSS9/ITDwZAGB+pEEiJTc9ZxI/x4R1kT07hB58wmRVXcH6YPcCM/lfPAm+IQtN4hs/7nI2EAJ+IqA8PEWAULKh9BNLD21vpYAoYU2hAoSAoBwYFWw9s+bUzsgwLgkMRnKAALSxssPixBlOFlAAIxW3yNyclu5gRBmJg6CwKUj60SwP7z1YoXPmvB9/z6Rd0xkY8sB4VhIkJJsCFPjla54uu0A4fk6AeHLOYBwPAQ6YUycDCB4lUYNkNHegDqjHxiaA+eBflftbFWi+GhQGVolISRA6ApebkgnZzwgPDx5lQHpAKMgxkwyJWUPmH+qh7chtAoQksrQEF7pikISIIz3MiBNEMjEWgRchM04WgoIxwoyUBiQpDJ0BUtPrZMJEMYDglcZ5oZYAdY2qMivwODVgyvBgInbstqHGAsMnVmpIgHC1MZterpJFGhnQCAsmNWGR9cHQ54yJHEGBCwVQ5cxKlayIUxSZfDeheuCQZNQ5mMbQ6Rk0UZwJUQ69u4JEsSRtSKHJ/gUDk63UTFJCE1in5lX7DhAGCjIDtKw33kl+Nk1eq+B57I4hJ7SDIyX4eAL0aiInz+GEb/+eMgxgD6PhZ/kp3gPcOv54J0GAoLGF3AGkJ7/REjvTg4EGPv0myGNGzEJ/h7Clq8JocuEL9sPz/Mb6dtZ/GQlDTJDr2iVDQGVYaA/qQwzj30b36OWA0IM9iHQZ//ysFZBGYVZmAVC5DJYALPHCEOiFVk8tGdxyHZEbIFf6agRgw0GBA8yMfAIewLLsolkfOGTwdioXotsMFL2f57lO6SZLCD07hZ56cGwyEnra/RZIxUJTEqA0HjemZElAgjDw8P9JFcdGBjwn2ZJCDrjM+uS2ZgEpTaQCJXgMj7+/SKvPhoCfjyTISnEnZkWxE1S+B7AYEaGQVkxSdyBLY/VhUgSysCc/VqGGkKXffkajTgrSCu0338UiCaQmrS/FhDUQYGkc2JbCJwioYvW10hQyAOEQqGQ1jLMSE5uUKcsIOjipmYAgjIHGY7IDaAJUACBon4euQWmPtMTZtaltwfR3ANDDBOGaSiPpc0sJnrtuyLMuDCZPaYCCL4OZXwTngwI1cq0HjxmBemmCFaKCLGhrL0glTuRjUqjWsuf6L48QEihyw1inJlajAWE/iZICMrIDPjN3xbp3x+zF8MQGebwX5nviO479orIi58r5Q/Q8ggX3vj1MMteNlGA1poPs619oD4JYSJmm+h3nfFRG5bcLHL45ZgrQRHLpHAjVdyueSJLP1KyiUxUfi2/5wFCkhBmKic3qF8WEBotISjzEuTz5s+CYVCXOhf54mrIYchyZxX3VWLQe7wK8e3gVWDtwIufDSnUzpr1ARYIeI5NWljFiKcA5oExJ6My1MJwE93jU7lFOwj7TR5aLXJ+sNRP2qntxnPCCs/n74l2hUlIIpXakQcISUJoEOPM1GLKAKFgbAgfnZqXAfGXlXwMcJ+QNId5AQDsCEc2Bu/C4FvlkYHKLDAOeyaQ63Df8vIcCpap/HV0C7JCEvUEEACYqgJCNh/CBLaBSgw47vvI1JozEkmBhVGsubCbwdBuDm9X2BoWamE0VSljXLk1ti8PEJKEMFM5uUH9Gg8IU3Q7Ri/CohtFXvlGWBxkF/Yok1++LDJ8LLjwlt8RXIhrvxCYHou8lRYiv4TZ1KgU5tL/xiyLW3Dbj0SWk4DV2BwqAQLtYd+FDV8Toc1TZcJKzKs5HvFYsBCL5C/Qhfr1Qz+5JrU8O03hiSHfZL1tSoDQICbppmIsIPQP9E/Zy4DVH8ba+kORwqGgDuhAV5vB5UsiPbuCsY3gIj+DRgs++QbYPMXPojkJUcvAIf5DqjWWPrPNGx4MJBNv0DNidyVAoAjiH4aPhHyHy2OilHqZsCIgqGEyxlaQQg2V5uJoyZYCGOhBVqddC4KbczKGTFt/AoRu4uQG9bUcEIzKUEdgEkwEILz8+RBPoFZ/O9BxKxKU433wN5jZzzAMAUfMov17A7Mqk+SdkQqIFCSzMvYF3wYDBMrY2rYtPxRhAxbAybaLa7I5n94WMi97q/+1EVgAK1OmZbrJXnvwoyzSxN8hcmB5SP2uYGnbxB6WRQ9EHfUnQGgQk3RTMRYQvFFxCpGKyjQEEfmdk8w27agAF4ZD/AH5DjV1mGdUBYM46JV52W6NWRSmV4ZRULh4LqZN/5rIwhuCjUCZE6bTa87aLhKtsrszagVSgWU+e83sDKOy5yMGUaQW3Js+u1Fsqy1/UteGsX3G5htFtv9MZPSkSNbgCqDunidCYJb2YTJ1JUDoJk5uUF8tIExVZfCDdrbIq98WGT5asgPAxBgPd/w8JhaNDKuDnJl96a3i3XNEKOos+tR7RZbdNj5JCcy8f0VgVJhc/fdaXh7T6G9IMCRiPfSiyNneaNyLoroFBa6xZWDnGD4R0sSz4Qq2Ca+SZEAnr85q32l7UGX4sB/EwL5SMhbqx/Oye7HIklsTIDRouKdiJqJAOSBMXWWACfIAofCWyEsPxPyGzLLkKmQz13vDfgkntoYMRBu+EmZjJAiYnX0bjm8pt8ojHeDGLG7UQnk5DArT6UeZ0/9PbMAtIq99L0gLSCBqxAS8LDCoRMKZfSAJn/YGywbkQlRQAKSwpbCtvN16zgPCogQIE43h9HsDKdAKQGACBhDYuQjGhBHQn7d8X6Rne0klgCnZsOXFzwdfvAeE2yIgGPWDHAXkKSyudswBA+9hiLq/gkKRAY0bkp2X2Dxl4ODE9gpAgehHAqL8wioj/ivgTPbspaFZQTo6sKw8eCkBQgMHeiqqNgq0GhBwpWEoO/V6mHHtzKyzMC63RR8WeRoJoQ5A8NLHDSHCkQhAtokn2hEmVlBQYPL3Xh/2cWD2J2Ta7hqtEoJKDaSAJ5ZAN4GdLADk3U8biFHAboFhU48ECLWN4XRXAynQEkC4GjIWs08BSUnRzS3TeWaLejxhvOzXUC8geGngWpF1D4uQswB7A4yFC/SNnwSAGQcKSC2savygyCvfDNICrsyyI7YPdYUt4RIgNHAQpqLahwIDAwP3Dw0NhdWOPlKxX3Ysri8fgjLaOBsCBrKLYfa7GhlNZ1xlOv5ndgQwSH1etCFMUkLAQMezexdFH79WICEQiLRoeA+8hBA3XdF2s1gKdyP+/7xMSRTFxjKbvhVcnHmzffE7Y7/w5VdRL5KE0D780PUtQUJQQGiIlyFjVMwyPkwVJ1t/gasNMZxU5agK2BZIwQ5jeRvCrTk2BGbpCjYEDUBiJ+niVmo25uBqWGC1NUYzEtpcjGiMTLvmcyIntoTnab//4DaN6w18cpQqRkVv4FQAmBPdlcb9WQQN9bYklaHr+bBtCGAlhGYAgpmgyy5hMkJ3WZGIrx3jHjOpzzIE80RAACBObS254ygE//yehSG01zOXMl9kOmbcohvvnVK1Fpx0JeXLXxRZaLaV51k+RBKyBgNj4/DxsA8DKo/f8g0wqOTZiEyOrQS1haXZxGU8f6+E0Gh+N+2l/UlCaBt2SA1phQ2hxJLhCvsBex6SJIXsR5oLQEV3znzwv5N+rJhLIBaEIRJrP0ZAjIWLiFA00YRc+2jHr4qceE3kQoVNV7ETkEcBUCgaHKk7gsLim8PiLMCBgKbnYs4Cbee4mT4yO3EOB58PwUbnR0UuDIn07BRvTC3aHgwoJEBIfNg2FGi1hIDYfWyzyKZvBIZH3/cMFhkE5mAGJT6BHZHG+nMMkDFWAPcjax7IgsSqSsp5Ns7cvsw5YZv33QtEzhrvgZUUfDTgs7EtUTLxs3YEJQUHf6aNysh6jhIBz2CDIH07qzL9GgWDhIAY0hA7XvvgK/N8AoS2YYfUkFYBAgua+vaGYCAfeRcZSWdb9cezMAq3JDYF64koGh6MPQBbBMzNfSMnRfY8FxY3kW7NlwdAxGXY6x4SOb61FPijoMCzAI/d/VnbZIFBgaDMPmDAgGfwVAB0Pgw5GkqoR+vCsEoS2WV3GmBJKkNiwnaiQBkg9PcLdoSGexnYePWoyPpHYqQiIrnq+1FEJ68g3gWi9dgYVZnInpW59DszAftLZmGWDrM2YFkMMfZMPSsYKJm9yVx0yWRYAhAm2g6eMib6eGPm3BBBmd3YNTQu9AmwYHfrZXeUljY3W0I4fTQkWR0dHZWUD6GduK8N29IKQGCyJA6AFY7M3p5JDSAQcfjqd8MOy8yiHJ7pi+6IsIMSC6ZIonJ+ZPxCIAsSlEF2InZoRiWhPnVH7nxWhMVLejQKELyEMFtky2MhuKko0WhF5ox7Fffn+i+FeAbUHOwVzQpMSoDQhozXrk1qGSC8LUICFA8IUX+GiTR3AhKErvazzO0NiKdDynYMiHgjMDSe3BoWTPF78TDiOcFPxEMQbEQ96o6sNevyRBKB/V3VCOpYfa/IyddLeSCKbVOQi1/4fp0Q2bc0pIRDekmA0K5c0kXtaikgsJZBXXbRaEeuwbJNVVUqiIFKZBbCEMdCJhiOD7o62ZhZnMSiKPIUigWGuBCJ9OeLbm4+IBTtC7ODGqAZkXwcBCBltnID7CzgIc2g5uxZND4bdaNCl4OE0CdJZegixq63q/mAcKaunZuYiZk5x0UqisiZvhA6rAZFL2LPEgEQjqwrj+GHgVhTgJGQzVE0L6K1O6ixEH8/2ZmG3i6PVWBlogcEMjI1WULw0oKRelgeTc6HNx4Ps/7+lSK9OzN9VOAzHhO8JlbiaSQg9A8kQKiXR7rquYYDwmyRzY+GBCl2cHtPwIm418It0Y4wO4QAk2eA4B9UBu5jZeTW74Vl0B44ojQBCGCAY0b24ICxb7bIsltFDq4p3z/RA8LjYU1ESwAhtgVwKLY5thepBi/G7oUB6FQ1QnsoSgsqOXCOaoUHhOdEFk8xHwISQgKErmLr+jubDwj1r2WAYdc/FAJ+ygyEcZATh8AWbj5r0tzA4AQFrfuiCJGAW38cjYHRHafMzz0rPxaSmyBl+OxFCgi3i7zVDoAQvREAgrUxcA0o0Jc1nw7JWc4NlasSkTxlp7GCyLYfiiy8KYBMtsyJ/teMScmoWD9/dN2TCghs49bf3xfdjpNXGZQJNNnH9idCtiHiDzis7sx3RBCu/3KwDQAihCw/c43Isx8I1xpgRBQjiVXYswBDIRZ6Nm9Z/RkRXJVeQqgECNgQUBmYqbHk3xLcmoCSHo3yMlRjTqUNoMD6DKIVUYdY2WmlKG0TtELCObiyFB+hZVSrJ/ubBYQkIXQda9fXYQWEwkBhSoBQHIyI82Revklk6/fDGgB2bdZDReQrV6Jq8INgIGRBE4PefwgmIi7h3iA1FA6XPBCUw2IopAkkBeol72ElCYF1CkgXgMq+JSFoCBDQA4bEqElosrooi32JM36j/qdv9AtvCW5HgCkLCPzPikqiK8nMpDSppw0JEOrjia5+qggIBQBBA5MmLyH4AWsMa4DCwrkhG/KROPiLTBiVZAb/mdMie5cE4yEMiZ0ADwKrEfv2REOc3h/PMDRlwsSoDtUAASCAufwmMCYgSYGJNuHJ0CXX9TBeLc8gpQBOW9iHcs/4fShpBzYD1lYQqenT0+eoHrXUpfckQOhq1q6v8+WAUL/KoIMQEV6vVVRH94fpWZeQnRFhBDZ+xdPA6kA2d2Gtg89HoAhijW9ICGeDgQ4gYCOTXEAYFenbFfZrsJGJFGnBgP9JC7/SZILW9jfqDB1IIouaQGJXSwPflqsBIGjHmvtDrkkkg6nWnwChPp7o6qcUEIINYYoSgorYOpiNCkA8AKnHyGLMKkM/2ccZH6bEAEkEoe5mVDS1q/U9MjIxB4Q3Y5TUXAZ5gACj2Y/BlrLLmm0I9En7pf2s4YzdgDTxPoGqWXVp+48KxOpIXLBISVNREyyIJEDoataur/MKCA2zIeQxSbQroMu/xsKl/eUic3bGHvf/lSAVsISY/AJFQ2H0RJCqnQVKgMlER7bscYCgjB/BTEGAthP1CHMXXZ55fTXfecYmxfojIkPHgmRg6+fa2wvmBzWJunzUoynDMvhkrxMg1McTXf1U0wEhzqrKHJxf/IzI4Q1RLchEGFqGhmFgcmwJ2BSQBLwacm2YRWGgBXNDMpOT20TYFarSge8fIx6bxVijItcseFpFvoO5QepA8vCfOTE79GMibB7L9nNH14UUangs/P4MVaQG2goTv/54CMwqSj3RXsCu1pu+GYye3i3ZICBQ4EiA0NWsXV/n+/r6Qgq1RnkZcgY1IOAHKTMgLsBrgjuNpcAsVMoeHgjOhwVR5Dcs5jqIQEAZMCxGxdd/GpZVW0+GLY+ySJDSsyOsRESSsHUCCGRF2v2cyJs/DYFTRDgSZUiaNtZMFFOxxYJZzcg+kurlUAbMnhUQSA2Hy9QCAmBAvMb8GIvBs0U65dAwW3Yt/ydAqI8nuvqpVgCCH7xGHFZGYZdmRGbLKDAouzzhRmR1JLs6+QjFKMLzLCoC6xjwDlhmhfn56IFdwidQIUXbJ4LIn13cxP3USaIU/zkftqTnWgOrtDxbNlmc1n0pAFMlRtZ+5gECsRQ+N6Myv4Km/t+AcwKErmbt+jrfdJUhZ2DDKIjbpFvH7aiAAMORGAVmZz8G7lNm4xo9fuNXRI5vFiGKLzcEOHLvaK8IiVZJf+ZBhTTrN4iwrkBTqlkGV6bPO9v79BqwYCk18RbK+NlZW7/PA4TjeDai27SRdgPbhgQI9fFEVz+lEgIxCH39vT4WYfviOuMQcpjfDlC9hlHyAAHvA3kMcFMqEPAM9xOkw1JhUqFZIMgyMGX07RN55euBWZEuKAMdnZyIb60Obs7sc5P9n2jL3WyzdnOQYLRv9lwrINhnGnmtgHDqaL/09fXJyMhISpDS1dxeQ+cVEAo+MCnEIbw5TYDArHsA99tdIRU7oEA4M9vLo+crEKAV6EwNI+PXZ6XgwIFgfIRJn8HeEMEAJvOAMDdka7Y2BP88qgZLlPM+RgWxoEFoMUldkDpopwUwZWqtfyIJQe9v9FkB4fTREJaelj/XwBDdfksRENSo2N8v0yUhZAEBJsZ4eGBVaVYvAwJyJoxFoyDGx5jKnShJmMsyqZblbQgmYxLlYSTs3Ru2l2er+OJnh8iZU+NtCRgwj6wPCVzVLZnHzAkQup27OrD/FhD6WNzUZoCA/p9dp8BMfeUdkcEjYYcmXegE0wMGfsaOy6SVUcsAYbg013u344ZgayCacOkt4cPu0HgRNnw5uCUxImLsZJk2+zWwz0KtbsfplhBOIY8FtDoAAB3wSURBVCEklaEDuXMamqyAQKSi2hDaQmWItgMYecsPYibjK8EjcKY3RPahSmDUmx/zDjAjI8KTNAVPBKshVUqoBghsH7f8zqBicJ/9ACgAxYufDXtIsHyZ/IdZCUSBx57bRUJIgDANjNWpVSogWKPidAKCNypiQ4huOIyCLApCXz+8Lhgdyd7MEmJlSjUcEvrLRqynd4Rt5skloLEC1QChWtZlL22oyzNztsyfd+2lletC/MPZ/pI3BfnEehnynm3Ed9aGgPSXjIqdyqUtbDeAMDg42I8VerolBNyPJFsliaq6HWEMmNIzdPRiaFyC/w3AuCmENLPvgw1QIt/A5u+U3I7YI7JxCKgM1QBh0oxpQAMJhdWW5H5gAZc9WgkISAgJEFrIVJ1clUoIFhBaZlQ0gUnWWEiI8dsvibxwX1ABPOPjKdC4BJguqgdr7w9Loe1uzZTFByMlyUu9axAD5ZzmAoKXaqJkw56U5GzA9gDocNg+snybwCTaNGnQqdG9qxLCyeR27GQWbW3bpwUQYnbiTZp7MYdhcAH6TVeeEllFolV170UgWH2PyN7FIS7BZly2TAewsCkK6kW9KkMtzKpqBSsVWW/B+oRTpGKvsLaC70nW4qWgGpm7lnZk71FASHEIreWpjq5NAaG/PxgVkRSaaUPwUXlxFvV5EhaHjV8JKArTaDzHE/EFuAHJrMyahtWfCusIWDGJBKCHBQLA5NxAWAGpiU+aBQgKBhgaCYZi5kdVsdGX2jbOgBT5HtY+0Li8B1kg0P8VELyE0FuyIZw6derdIvKujh64qfHNoYACgqoMvb29ARDuuBLcd42ewSIYqHjNjIrB8NT2mB0pcrgyEf9yTVJSsgkVDsT7KgQMASCkPAdAENthDurygDBXZOe88Ts34WVY8dHJi+6qtrx4f0i37vd0tOnZTBtRG8jatPPpKPEYD4gycKPPCgheQjCAMDg4mAChOezU+aVmAaHZEoIOep1ZOaNHr7onZEFim3fVuRUMilKA2fBk3G9s+HoqpEt74Z6SiuFzDAAI14QZee+ikMDUlklORZY/e5CqAQABAjwIuCNZEYlq49WDCAAWzKiHtROHXhJZ81kRksZq35UWzTorICQJofP5tGU9ABCsl6Gvt7kqgx38lgFhMLwA6x8OLjlEa44sc4VvS3/5nXuPvyby8oNm9aGRRKgHff2Nn4gMHykBjpZNKDMZi1bfV8pYZNvJtao6tJO8CWsfDO20Xg0tT8+oNGwBv/UH0bBpQqmrRThm6673fwUEJAQbmJRUhpaxV+dVNJ2AoANdgYGZ95n3h2XKrz0W1iYUU6qVMKDsipmZ9GQEI6EW+Nk7uv4on4hDVJK+3eX7LSrT6plCkU6Y8VlLYdco6IwOEGDDID06Koy1E2ijKA8gwLuAesDW70gnGiuhfdW+N/OsgHDySL8A9BqHkACh8/i0ZS0eBwj9UUJolg2hgkheZBSYGcZmU5P7QnJW8jCSkTjvwICI7o7VHpGczWMBBWIT2PyF1Y2527ObwiwosDbi9Bsh1duS26NdYU4ACXJCssiquNcEZVg7waWQCOXw+rCzM+nWPEjFPjdrmXMlUCkCwuE+6enpleHhYb/aMQFCy9ir8yoqtyH0+GWyzfQyVBq8/vso5nOtejozNTkJSWEGY7Ofgx6WkZEU+g+EqMB1D4VVjSPkMaxg5ONZ+7yWqWe8FAdXB8be/O2wqaxNxqL3caYcMkGTxu3VR0WW3BYSshZBLho2q/a9AlBO5ZkSICAhJEDoPO6chhaXACHkQ+jti16GO5vkZZjEwIehPDDMCqI//v0Tr4qcx75gZmbLnBjwAA6r23NvkfnxWBSC64/NUsivUDRi2vtE5NLFUJYPesoBIsr0OR/3hYzS7N/osyZrANUk+joVxq/0rALCibf7ksowDbzVkVWqytDb2ye9fT3SNoAAGKioHYEBQxyuxDeeCCsdWfGoR5Hh9Yt4tt9zfwEj3/fDLM5mKMQOnHxd5JINLc4AgxbpyzJAxD4T2C9Wf7rc5gCDatsrMWsrvgcQXvvZWTlxuE9wJyeVoSNZtLWNVkDQxU1tAwh2ds2oEmRaJt8iasRFtkOrwMCWkZEK2GQW5sWb4aWPCDTEQpA0lfyOPkmKPpg9RzDAaIiRctO3xqdQs2pCK5i+Wh1FQPASQm8yKraWtTqzNlUZmEH62klCsICg18aViOWe3AXsFs2iJnR4mNkeqAK4JE9sC7kYF30oGiy1vHjG8If0sfYLYZ/HscG4mUwEAE6ADnYKvAdsDUeUpd+QVl2JBrSqMWkrfyuqDElC6EzmnI5Wq4TgIxX7ettHZcgwrTJScQaO0YdPvVdk+W0ibz4pMrBf5MJYYGZSnPXuEtnyWIgBePr9xuJvmFfLw1bx9PtCjMGmr4uc2BJci4RUIxEgPRxcFRZcAR6kdmtFLIH2u56zBwRUhighJJVhOjisw+rsNEDwjJGxL/iw5OuD25EVhngH2GOBtQ8LInAUdXoDBspkCgr8792E14Z9I1iGjduSDEmvfC0kRlEjJ/fa57SsdjpnVYYECB3GnNPR3I4EhCg9KEPC7FzzIXgIV6W3E2Ss/Xr/REzry4qbwZDCjU8WAGota6K6mvl7FhBSYNJ0cFiH1amA0NZGxQrqQ5aZPCNHYNBrf0+OVJB9Vu9TSUKft+fcZ2ps23Q8Ww4IKVKxw1hzepqrgIBRsa3cjm3MaNPB3PXUWQSEZFScHubqxFoVEGaChFAP08zkZ4qAkNyOncia09NmBYSQD6HHB7BMW+hykgoamk6tCAh+LUNPCkyaHhbrrFoBhEKhEJKsEoegCVLaIHR5Js/ereibBYTetLipsxhzulpbLiH0JkCYQVJKAoTp4qoOrhdAGBoa8hKCNyomCaGhYnsrJIFKdZQBQlrL0MFc2sKmq4RQXNyUAGFGAkJPT7IhtJCtOreqBAiTT65aaUZut++LEkIKXe5cBm11y/MAodkbtbQb48zU9rA2Q5c/Jwmh1ZzVofWNA4S+Ptm14qysuPuKT/YxU5llpvdL11xsfeqskFOxN6kMHcqhLW62AgJJOHt6e/z+joe2jMhLD14u7pY005lnJvaP5eHL77wse18akdMnSZCSbAgtZq3OrK4ICH29PhFnX3+PnDzcL1t/fl6W3H61LTL/zESGbWafVDrY+J0LcmxfQVAXUpLVzuTPlre6BAhhFkG07OntlWM7h2XTd98RtiirtuDHLv5J16VVl9NGi1lXZcH1V2XN5y7L/rWjcup4vweElEKt5azVmRWWA0KQEgCF3v4eOX1kUPa9cF42fOOSrPrUJVl29yVZdlf6tCUNPnZJlt91WdY8eEneXDgmx/YOSc8pAs16hCjFBAidyZ8tb3UWEPyqR1Y+9mBPCDaFntP9cvpEv59tmHHSp31pcPpkv896BaADBqgL+k5TgpSWs1fnVVgJENA5w2AiE3P6dBQNPBAA6kEySIDQeXw5bS2uBAg6iPyg8uAQ1IkAFOm6Xemg76v4/pD24idJCNPGZp1T8YSAYAaUDqx0LjFZJ9EiAULn8OW0tVREfrGnp+eXROSX+/r60mcG04B3LCK/ZdoGW6o4USBRIFEgUSBRIFEgUSBRIFEgUSBRIFEgUSBRIFEgUSBRIFEgUSBRIFEgUSBRIFEgUSBRIFEgUSCPAr/ROfdbnXO/zTn3G/JuSN+1jAL41P+gc+7POOf+nHPuD8V307IGzKCKfjHSjnOnHr8Q+wB/tuT4Jefc+51zP3TOPeec+1/Oud/ekppTJZYCf8A59z7n3Pedcyucc6845151zj3vnHvcOfde59zvtA+k66oUgIE+5Jx72jn3sQ4e0//BOfcD59wTcXJ4V9VeN+DHP+qce9E5d8k5J865l51zf6EB5aYiaqMAL/jvRBAYdM5dje+Bd2E//LbGOcf7avqgqK3pbX3X73DOPemcOx9p+6tt3drKjfuoc24sjoW/2Ox3j3rwn51zBzKDj+9+U+U2pl8aSIG/6Zw7Yuh/3Dn3ZefcrCgVPOqcOx2BArAAsJEm0lGdAgDCTyMgLHXOdSog3OGcG3HOvRMn6qZOBuir344VvhEHJhVDyD9Wnd7p1wZQAHVts3PucmT4r1RQC/5UVB+Q4i465x6qcF8DmjRjikiAUMer/JPOua1RXfhEFLGGnXMF59w/qiCeYKD5vc45CI7B4zc7536fc+5POOfeHXU1a5j8ZefcH3bOURe/Y7ishHIYN3/FOfdH4v0Y1t4Tv6Mue6BP0w6Qv9rndznn8oxKtJvnAD4Yjjop07Zd6wM4tc/8jn6qfeb531OnRPUZ59yoc+6Kc+6bsZ9aZ/ZsJYnt0eiYbStSnfbpT8c+Qc88ekMT7qXP/K7vEVr8mnOO92af43++53feY9bIxb2MCcrkN9oG7VFxtEzqyB68198d6UubsF9BU8YTz9s28Czj5/fH3xlTGGDzFjflAQLfaR8Yk9SVLd+2T9vGGISePAs98w6lPb/Tdx1f9IMPdKkmdfMMY+qPR3rRR9rWUgnhriiOHnLO/fsopqI+ICUwC0Fse9DAv+Wce8w5B4D8m9jgZ51zO5xz6+LA/gfxJf1D59zno+67KxrK7nfO/XnnHMxvD4g21zn3Pefcaufcbucc7doUDW3/KWMYQrfC0ILRqNKHdn3NOfc3zMvgJTNAb43PbXPO7Y1thCkx4tiXzv3/3Dn3I+fc7c65f+acg27znXNvRkB9xjl3bRzUtk/Vrhkw0Aw1gPqxI2Rpkn0eCQI7AlIdAGHvh/FujH0C5Pc5516K9PxvORLFX4sTwL3OuX8aDW/znHN74nv8unPu70W6/RPn3MOxPNq60Tn3uQja0IcDRr3NOQct/nf8YCB9LfaPsfFp59xfybQbLwp0/4lz7n/Eccc7gTYYuvmdcQfD8OynovGb33c651AH7ovitKVHFhD+o3MO+q2NfWSMfSO+2zygYgxcEw26jMH98VnG53+N/Y1d9yf0e8Yb45t3CSMzLmkjAA5teT8AQ/ZgssGgzPOMKd7dIufcnEiPlqgMoCPGRGYnrNp/NiI1hEI0RYX4q5mW81L+p3PuoHPuZGTYc1H/BUTUIAbRP+ucez2WRR3WQAahAAA9ABkG0pl4H2fK19mTZwEH9Gq1tC+PorYtN++atjIYdBahLp7VdlMXUpEaVU845z4ewZCBCKrf4Jw75px7Kw4mfZZntM+UwWAF5Ws5AJbe2N9lFQZKthwGDrNzdqbh3fEOUSegAe3DCKl073fOPWj6RLnYifieNjAAeX88eyGeuYaJAX5AALVGy1M6PxWlI8qDgfBS8TxgPhBpw3ukDn0W5mLC0D4wOZyKdfKO9T1QB8Y0xgnjjgkBr4v+jhQ7ZMoFBAFulQYtIGCXwU6jqpmWQR1MgIwPCwqAEJONvmcMk/RB3zV9A9yQYPT4t865s1G6BtCoi/ItPaHxF6Ikpc8hXWIz0rp4hvdCXfT/aOwzz2LsZ0w25YCxeQEwBMyLiMIBwtFhCH5zptO8GGYbmIyG8wHVGFx/3Tn3gHOuJxIDQvQ55z7pnGM2YuZlgDFoqZOXoIPiS3EA8xvXzOiITvjhQX+MatTFbIDoxsFAoVzqtZ+/FMGFlwMRvxWZiGcgPshL2wAb6vq7EQz/S5RgeAbm/u9xkNBGkJoXo33Gev0vnHN/2Tl3Z5w9GPAMfmaHWg6kIZiW+pjx7eCq5Xm9BwaALtCOgcsMRhuQgmAQbBQwAAOOGU9FfRiM96N9grmREpmFmf2ZlRjU0ArGQzqiv//O0Ik+//2oOgIIgDptoEzoj7uPdiByA0iUw28WAAGEw6YdjEmkE2ZUxhMTAGNB+wGNr49SJmMBsOZ52gIjqsHVAgJ1QgMYD1WYcYXEo+1hArNADg15L9AUl+/fjm1AKmMShS6Mkf9rpJ1/Ffus9AQcAX2Y+ANxMoHJoQ/tVsbGnaxgsD6CJaoQ/LLFAB7taSog/Cw2BOT814Y56TwiDh2D2WmcHllAWBUHEN9z8HJ52ToobjEzOr8jVvPCGWT4iHlpSCEvROJTn5UcQqmhHTzDDMFg1/r0d3tGFWCWh/grM0S8yTnHbAFxv5ijEiEiM9MwuJAisGFkAYGZI9tGBVEGyv8z0ohtV/YaaQKmYxaAcdDR6zlmRwCnbt4poGcPbCOoa/SJAUefoJ8FBOiv3/MsDIhqAp0YB0hmCiT8zgCHjtCYGBakrywgoIpk41nUDcj7oX5mZQsIAD8TFeVBd9QRzqho0AoGRVxXaU/7CUAgZdAegAtjbRYQsjMzzwIEAAVjEpCALowvJjXKYnxTlj0ol3EIPZdEOw3MbQGB2BHGiDI9z0MnZXxUI9QbJgFAlDa8HYHTPvOPowRDW5oKCMyi6HYMIlUXbKcXxgYgSvLidDBAMCshwODojnogZYCuvDw6iHhuD2wKoDjMzYBBn4IoIOlHol6sIh+DgWsIpxIEzIq4aXVFWz6DiTbzshBbudeCx48jA6KnoRdny6GfSEvMnMwAKtpaCQFJgkFqj+vioIKezPy1MDcDFEkJSQWgsnS0ZU90jZ4OqCDVMVtn+8T/6K5II9CdPkFbCwgwuL5j6sPIR7kMYBgfA5w9qAdbA3TGlkN/LSBAPwxw2QPpA8ZlfADcMJsFBCRIlVT1We5hVoYhUDUBK4CEd8CH98szgB2MBRMzriwg8F6QUrIHkwLvgEkRIIAujEukGyY11AAFJa2Puhn30Ia+IDXQBgsITHY6jrVOJBMFUcYL5QHWjEWlo30H+tzPY9+bCgh3x86AuIjUMAdiN51DDMegyEuloYh6+pIsIEAMxGqL1gwkDDWIYqBvNsAJ6QMxyAKCdpwzRkzEUpARUQrmROJAfQElARMImx30PEsfQG5ePuI9IpfVC3lB+PCZ8XT2t3XrNS9bRVgkJ55TQKDPvPhs/YAExiMGJMyXnRm1bHtmJgN0oAWAp7YRe08t1xj46DOzXJZx9XkGu6pdiPwMRgUEdGOu7QCGmXiPMAY0yxqXUenoL+NDpRsLCDBuVlLRtmjMxVcjiCgg0AckHMaQPWiLqqgwPWoEaqj9IEFg9FM6YAOwgMDkkO0DdWD44x1gH2LM8V4xmMN8fFArbD16jYoH7zCWGHeAhgJCVpXQviAJYwiFZqg5vANsP0wIlMPzlJM9dJw0DRBAzwVGrFdxRInAme/40FAYmwEFsSwgIAEwkCzTWUBAnFJ9XztZCRAwlIGqGDRhfohG3XwgMAOT7/IAARELMEM9ANXRMRHPsrM0uiUGLQYN+nJW7Nc2Is4x+9F/dG6YG0QHZBhYDJzsiwN8QHoA4YM1AgLSDLM6fcRjgcFwooO2wIwwPu+CQa8gSN8UuLPlAPIABn0C3JiJFBBgBrxFWUDA8g/deY/ZcicCBDw7AETegTrKu2TmAzQQ1QFgGCxPrIe5dWbVMVHpTP+QPhhP0Ab9nzHB2Miz7iOVKiDoRLM4jpFKdej3yh/Yz+ANBQTGH7aY7KSBVI6Rnb4jRQIIeHegMeOG6+y4gn7/P/JE0wCBAa/oDqFBLQYzL0o//A+S85L4oKMxGC0gMMCys7AFBGsA1IGRBwgMNgYQIi3EZsYCGL4TxVGIi97Oi84DBERIbA+IzWoIzRuMSDKIpLxIANHaRrR9nDEU6YzENSKrSgjQCrUn++KgA7SbDCAgLkJ/+swsnzeD2XZxjTuPQYV+/38iY6uEwPeVykDyQ2+nLtxb0EIBAWZkMFcCBN7jZAGB6MpKRlKlrdo7FBCQlLDcZ6Ur6lY6wayoKKgblT4qoVlAANRqBQSMgUwatAfAqFQP39MWJj34QgEBOiOFZccIki+euzxA4L1gpM4+wzvnfTGumwIIzOaoALg1aAToA5oy4zBA9YP+ByMyU3IfLw8GosFqQ2gUIKB2MPPCqBhjmIF5eczwEJoDEQ3RikGvoh3fI2ZjF0APBLjwSOS9+FBKUD942Ug9iKp5hxoe6TcvGSRXQABImUmyL64eQKBu9F1eNOI8zG7Vr7y2Ye/hft6fMjYMy+BlZuL95R2oPgAtfUIvtioDwN9oQKjEgIAEEgnt0EAsVRkqAQIAAd0ZH49EqQKp0H7oc3bMWJUBGuWNCysh6LhCVaItTDBMNrYevQY88UpARz3qAQRUalUZWFSYlSooG/Wee5oCCARPoD/TYdw4iDGVDmYbdEEIg1gFgtHgRgMCbjt0cwYJs1aWKAADMzu/g7CIVvoikCxoG79hBOMFVjuYuSAu4j82iqxaATACMNzDrIRE00xAgJYKzjARaoyCYLYfzEjMFPQV9QBRmgMXHYDIB+DKGif5HzuRGh7pE4CmEkIzAIHxhX4MA9mDwCXsS3yYyWnbRIDAPdAGwGdCwDCZBWSAkDGCoU8lpXoBAZCAljAgMRhWJaYvvB/UQuriPjVc1wMItFuNinl2F+rChsYk1hRAQMxkZmdQ0dlKhh86DiOg1yuiY+ADFRsNCAx0ZjfahP8bXR9CAAxIAKyrYDDzOyL7v4ziLe3HPcT3zPjEEyDe530UQLCOM9vwDPEIeEGYlfmdmQjdTo1e3zVBQM2SEKAz9gMYiDYhMcCw9Jt2oetzzQDUvqI6wVj0kwNQVyMoKhX2AgYx9KMMdFwMxJSP3o5ECKM2ExCoCzWO8UI7YGBEa4KAmOl5B0xOvOeJAIF7GLdqbyHakD4wS/OBDki90IV6sUNAs3oBgfEHPWkn4xIVUenJ+2BWVwMtRk7iLKBnPYBAeYx5ff+oqExSSjPGnUp2DQcE9HvENNCZWRVXXxbB4xgrnjAmqiGOl4ku2mhAgJB4HkBB2gUAYIWF4albJRT0cwyZDHDUGRUjIeaGKM3AXOiA9oOYjVqi0gB6qhIZgMH1hJSCj5wZmHZghNKlps2UECA0cfvEAeigYFADcLhvMYrhRqVNfM+gz1vYREyDMgyAhnUc0EBqUoMstgaMgTq7NhMQYCbaS04HRF4mE5iI72kn8SkKaBMBAjRi7CK50RfKpS+4B1ERqQPpge8ZE9CTcV0vIFAf0otKboxJ1AgkB8YIUgF18T0Mq5NNPYBAXQAQQViMb8olXFvfHXXx7qFbwwGBmYQZhErpGMg20YFxDpEUEOE5JAZEbVw8GIeyRkV0RL0fMS/rZWBGJv6Bwc8LxbIOGjIzow7QaerRD4OHtsKwABLP4eYiUEaDbfTeameeYVBxcMbdRH06kPRZ+onohotIGUcBAUarZlRULwNgljWMxaornliHQBQd5WfbRNsARdx/uKAU2GxhzGBIWrxfHVjaJ9QfxE71FOlzvDskh0pGRXU7YsjLGhXx6tBWDGR5cQiMDUR4C3IMahg22wdUC4Cee2HwSrRDncKGQHupV/vHGSAH+O17AxAAVER7+pBnQ4DxYGykYCQBxqIejEkmpCw96Qdj58MZdQLJFcBC1cwzKlovA0Z6BRLqY/JhMlPA075hW0OSVRUG8JxoEtf2T3iGIMwKGKNoQFY3qlQAVmD87IgzzDDo6czShB5jZ0Ck0wMRDpEVlxrGt+zghRkhHJ4OOsf9HJwBC9x7zODMKIjJoC6gRB1cA0bokLQBV5kuoql2xnBKH+wL4JpyEEWRRBA5AQ36hR1BwYC2UTezDhFyvGjUrOxLgQ60B8MQbbMDK/Rw4r+8DwY0dGY2ok1EQDLwkHAADduuvBKxZEMLZmVEZ848S1BO9lnazHviPcLw9j3Sft4jbVGR2dbHO8E4SV2APvfznYYuM+PBALzne6JYzGwKkNj3QJkwLuBEWxgT1WiHVEF7cCszobBwDlrRB9QT+16oBxCkjXl9oG4mRegDXzA52ef5nehN2kUdSGaMFVzR9M3Si3uhIfRiDHGdLQs1BuMuY5gxkv0dNYi6iHXg3QEa0IvvKbMrM5lBJMAB5sgSDKI349D6qg3EZtRbrUyYFxpM5HWoVAbMwLOt7JMFBCJdNa5C6VuprfV+r+VmGbPe8qo9x/tA328FPfXdVWtP+i1RoO0pUAkQ2r7hqYGJAokCjadAAoTG0zSVmCjQsRTAFkASGQyzGIKrubQ7tpOp4YkCiQK1UQCdHlc2xkMMwLUarWsrPd2VKJAokCiQKJAokCiQKJAokCiQKJAokCiQKJAokCiQKJAokCiQKJAokCiQKJAokCiQKJAokCiQKJAokCiQKJAokCiQKJAokCiQKJAokCiQKJAokCiQKJAokCiQKJAokCiQKJAokCiQKJAokCiQKJAoMIMo8OvFHPiS2FEHTwAAAABJRU5ErkJggg==;strokeWidth=3;" vertex="1" parent="1">
          <mxGeometry x="702.03" y="482" width="113.93" height="78" as="geometry" />
        </mxCell>
        <mxCell id="F0oYyTLLXaPs0bqgdizJ-69" style="edgeStyle=orthogonalEdgeStyle;rounded=0;orthogonalLoop=1;jettySize=auto;html=1;exitX=0;exitY=0.5;exitDx=0;exitDy=0;exitPerimeter=0;entryX=1;entryY=0.5;entryDx=0;entryDy=0;strokeWidth=3;" edge="1" parent="1" source="F0oYyTLLXaPs0bqgdizJ-63">
          <mxGeometry relative="1" as="geometry">
            <mxPoint x="600" y="170.5" as="targetPoint" />
          </mxGeometry>
        </mxCell>
        <mxCell id="F0oYyTLLXaPs0bqgdizJ-63" value="" style="outlineConnect=0;dashed=0;verticalLabelPosition=bottom;verticalAlign=top;align=center;html=1;shape=mxgraph.aws3.lambda_function;fillColor=#F58534;gradientColor=none;strokeWidth=3;" vertex="1" parent="1">
          <mxGeometry x="652.46" y="134.5" width="69" height="72" as="geometry" />
        </mxCell>
        <mxCell id="F0oYyTLLXaPs0bqgdizJ-67" value="" style="image;html=1;image=img/lib/clip_art/people/Construction_Worker_Man_128x128.png;strokeColor=#000000;strokeWidth=3;" vertex="1" parent="1">
          <mxGeometry x="520" y="134.5" width="80" height="80" as="geometry" />
        </mxCell>
        <mxCell id="F0oYyTLLXaPs0bqgdizJ-86" value="SNS" style="text;html=1;align=center;verticalAlign=middle;resizable=0;points=[];autosize=1;fontStyle=1;strokeWidth=3;" vertex="1" parent="1">
          <mxGeometry x="856.5" y="196.5" width="40" height="20" as="geometry" />
        </mxCell>
        <mxCell id="F0oYyTLLXaPs0bqgdizJ-87" value="&lt;b style=&quot;font-size: 24px&quot;&gt;&lt;font style=&quot;font-size: 24px&quot;&gt;5*&lt;/font&gt;&lt;/b&gt;" style="text;html=1;align=center;verticalAlign=middle;whiteSpace=wrap;rounded=1;arcSize=50;fontSize=24;fillColor=#FFD966;" vertex="1" parent="1">
          <mxGeometry x="503" y="95" width="33" height="35" as="geometry" />
        </mxCell>
        <mxCell id="F0oYyTLLXaPs0bqgdizJ-88" value="&lt;b style=&quot;font-size: 24px;&quot;&gt;&lt;font style=&quot;font-size: 24px;&quot;&gt;1&lt;/font&gt;&lt;/b&gt;" style="text;html=1;align=center;verticalAlign=middle;whiteSpace=wrap;rounded=1;arcSize=50;fontSize=24;fillColor=#FFD966;" vertex="1" parent="1">
          <mxGeometry x="11" y="250" width="33" height="35" as="geometry" />
        </mxCell>
        <mxCell id="F0oYyTLLXaPs0bqgdizJ-90" value="&lt;b style=&quot;font-size: 24px&quot;&gt;&lt;font style=&quot;font-size: 24px&quot;&gt;2&lt;/font&gt;&lt;/b&gt;" style="text;html=1;align=center;verticalAlign=middle;whiteSpace=wrap;rounded=1;arcSize=50;fontSize=24;fillColor=#FFD966;" vertex="1" parent="1">
          <mxGeometry x="420" y="250" width="33" height="35" as="geometry" />
        </mxCell>
        <mxCell id="F0oYyTLLXaPs0bqgdizJ-91" value="&lt;b style=&quot;font-size: 24px&quot;&gt;&lt;font style=&quot;font-size: 24px&quot;&gt;3&lt;/font&gt;&lt;/b&gt;" style="text;html=1;align=center;verticalAlign=middle;whiteSpace=wrap;rounded=1;arcSize=50;fontSize=24;fillColor=#FFD966;" vertex="1" parent="1">
          <mxGeometry x="420" y="469" width="33" height="35" as="geometry" />
        </mxCell>
        <mxCell id="F0oYyTLLXaPs0bqgdizJ-92" value="&lt;b style=&quot;font-size: 24px&quot;&gt;&lt;font style=&quot;font-size: 24px&quot;&gt;4&lt;/font&gt;&lt;/b&gt;" style="text;html=1;align=center;verticalAlign=middle;whiteSpace=wrap;rounded=1;arcSize=50;fontSize=24;fillColor=#FFD966;" vertex="1" parent="1">
          <mxGeometry x="11" y="95" width="33" height="35" as="geometry" />
        </mxCell>
      </root>
    </mxGraphModel>
  </diagram>
</mxfile>
